<?xml version="1.0" encoding="UTF-8"?>
<svg xmlns="http://www.w3.org/2000/svg" xmlns:xlink="http://www.w3.org/1999/xlink" width="900pt" height="225pt" viewBox="0 0 900 225" version="1.2">
<defs>
<clipPath id="clip1">
  <path d="M 49.910156 55.636719 L 838.578125 55.636719 L 838.578125 224.363281 L 49.910156 224.363281 Z M 49.910156 55.636719 "/>
</clipPath>
</defs>
<g id="surface1">
<rect x="0" y="0" width="900" height="225" style="fill:rgb(100%,100%,100%);fill-opacity:1;stroke:none;"/>
<rect x="0" y="0" width="900" height="225" style="fill:rgb(100%,100%,100%);fill-opacity:1;stroke:none;"/>
<rect x="0" y="0" width="900" height="225" style="fill:rgb(100%,100%,100%);fill-opacity:1;stroke:none;"/>
<g clip-path="url(#clip1)" clip-rule="nonzero">
<path style=" stroke:none;fill-rule:nonzero;fill:rgb(100%,86.268616%,72.938538%);fill-opacity:1;" d="M 697.78125 85.671875 C 709.472656 85.089844 721.105469 84.191406 732.765625 83.480469 C 756.148438 82.1875 779.292969 80.054688 802.546875 78.265625 C 801.414062 84.242188 800.347656 90.441406 803.703125 95.578125 C 803.703125 95.578125 807.308594 95.113281 811.761719 94.253906 C 816.222656 93.445312 821.574219 92.476562 825.148438 91.824219 C 855.363281 100.640625 851.199219 121.367188 837.9375 138.054688 C 834.492188 141.582031 830.601562 145.558594 826.167969 149.617188 C 822.445312 149.707031 818.710938 149.785156 815.019531 149.863281 C 798.222656 150.328125 781.664062 151.136719 764.96875 152.539062 C 748.367188 153.546875 731.699219 154.902344 714.816406 156.402344 C 681.105469 159.027344 671.121094 161.988281 634.675781 162.445312 C 583.550781 161.644531 685.449219 158.464844 634.675781 162.445312 C 694.96875 160.332031 596.957031 166.777344 658.285156 163.433594 C 673.640625 162.660156 664.367188 161.890625 679.625 161.132812 C 694.917969 160.578125 710.136719 160.015625 725.273438 159.472656 C 740.460938 158.917969 755.496094 158.859375 770.566406 158.625 C 785.683594 158.269531 800.621094 158.375 815.621094 158.523438 C 804.316406 167.015625 790.621094 174.214844 774.011719 176.625 C 734.417969 179.21875 695.355469 181.777344 656.636719 184.316406 C 656.460938 181.472656 626.375 186.644531 599.761719 188.355469 C 573.171875 189.875 546.964844 184.640625 520.589844 185.253906 C 467.824219 186.65625 362.761719 203.007812 362.03125 204.882812 C 361.765625 204.914062 361.507812 204.933594 361.261719 204.953125 C 361.507812 204.933594 361.765625 204.914062 362.03125 204.882812 C 361.382812 206.542969 361.875 207.746094 368.648438 207.273438 C 361.875 207.746094 361.382812 206.542969 362.03125 204.882812 C 469.039062 194.574219 544.644531 189.6875 652.234375 184.640625 C 568.789062 190.21875 511.824219 196.796875 429.75 203.609375 C 347.695312 210.382812 265.167969 217.234375 180.050781 222.460938 C 172.8125 222.902344 158.289062 223.78125 151.03125 224.226562 C 121.695312 217.492188 92.546875 216.367188 63.585938 218.027344 C 70.332031 203.480469 40.332031 176.917969 98.53125 179.21875 C 98.433594 176.398438 98.234375 170.75 98.125 167.925781 C 68.828125 162.554688 48.667969 150.238281 42.238281 137.570312 C 39.277344 131.261719 39.652344 124.707031 44.953125 118.871094 C 50.472656 113.003906 59.675781 107.890625 74.101562 104.226562 C 138.828125 89.199219 226.054688 95.230469 305.355469 84.222656 C 363.097656 77.535156 420.765625 70.574219 478.753906 71.730469 C 558.578125 74.042969 620.378906 63.859375 699.984375 66.398438 C 714.410156 66.160156 733.960938 62.339844 751.785156 59.507812 C 769.527344 56.484375 785.355469 54.054688 792.859375 57.304688 C 803.417969 59.882812 804.433594 65.796875 803.503906 72.679688 C 780.015625 75.503906 756.652344 78.742188 733.082031 80.984375 C 721.324219 82.175781 709.621094 83.519531 697.882812 84.539062 C 686.132812 85.503906 674.421875 86.472656 662.730469 87.429688 "/>
</g>
<path style=" stroke:none;fill-rule:nonzero;fill:rgb(13.328552%,13.328552%,13.328552%);fill-opacity:1;" d="M 136.730469 11.976562 C 130.382812 13.816406 124.03125 21.59375 119.53125 26.097656 C 116.664062 28.765625 113.800781 31.628906 111.136719 34.699219 C 109.300781 36.742188 104.589844 40.839844 104.183594 43.703125 C 104.382812 43.910156 104.382812 43.910156 104.589844 43.910156 L 101.726562 47.59375 C 101.519531 47.800781 103.769531 44.523438 103.769531 44.523438 C 102.742188 44.730469 100.90625 48.613281 100.90625 48.613281 C 95.171875 55.988281 88.832031 62.742188 83.507812 70.523438 C 77.5625 79.320312 72.65625 88.324219 67.945312 97.746094 C 70.613281 87.921875 74.089844 78.304688 77.980469 68.882812 C 79.007812 66.425781 90.261719 39.8125 90.667969 40.019531 C 90.054688 39.8125 80.023438 62.328125 79.410156 63.5625 C 84.121094 52.097656 89.234375 40.839844 95.171875 29.988281 C 94.765625 30.808594 94.351562 31.824219 94.558594 31.824219 C 95.378906 32.03125 99.476562 24.054688 98.863281 23.847656 L 98.242188 24.25 C 99.476562 22 100.085938 20.777344 98.863281 17.496094 C 97.628906 14.230469 94.558594 8.492188 90.261719 10.339844 C 87.597656 11.355469 85.34375 16.273438 84.328125 18.316406 C 83.707031 19.34375 83.507812 20.984375 82.886719 21.804688 C 82.078125 23.027344 80.636719 23.640625 79.410156 25.277344 C 76.753906 29.375 74.90625 34.285156 73.0625 38.785156 C 72.042969 41.246094 60.777344 65.605469 61.191406 65.8125 C 61.597656 65.605469 61.804688 65.199219 62.011719 64.785156 C 61.398438 66.632812 60.582031 68.46875 59.761719 70.316406 C 59.554688 70.105469 60.375 68.675781 60.167969 68.675781 C 58.121094 68.269531 51.980469 85.253906 51.574219 86.894531 C 50.757812 90.785156 49.730469 94.269531 48.089844 98.148438 C 47.0625 100.609375 46.046875 103.066406 45.226562 105.527344 C 45.226562 105.734375 44.199219 110.847656 45.019531 109 C 45.019531 109.613281 44.8125 110.027344 44.613281 110.640625 C 44.613281 110.433594 44.613281 110.027344 44.40625 109.820312 C 44.003906 110.027344 42.976562 115.558594 42.769531 115.753906 C 41.949219 117.808594 40.722656 119.644531 39.90625 121.699219 C 37.238281 127.425781 35.609375 133.777344 34.167969 139.917969 L 29.871094 160.792969 C 29.050781 164.683594 25.773438 173.488281 28.84375 177.371094 C 28.84375 176.964844 28.84375 176.757812 29.050781 176.558594 C 29.050781 176.757812 29.050781 177.171875 29.261719 177.578125 C 31.097656 184.332031 42.15625 182.289062 45.839844 178.398438 C 45.839844 178.8125 46.046875 179.007812 46.253906 179.214844 C 47.683594 167.753906 51.773438 156.082031 55.871094 145.238281 C 57.511719 140.53125 59.148438 132.75 62.417969 129.066406 C 62.625 127.023438 63.652344 126.398438 65.289062 127.425781 C 66.515625 127.632812 67.945312 127.839844 69.171875 127.839844 C 70.40625 128.039062 72.042969 128.039062 73.476562 127.839844 C 82.078125 126.398438 91.28125 120.671875 98.65625 116.171875 C 101.519531 114.53125 103.5625 112.074219 106.230469 110.640625 C 109.09375 109 111.957031 108.183594 114.828125 105.929688 C 122.601562 99.996094 128.949219 93.242188 135.089844 85.667969 C 141.234375 78.304688 146.554688 70.71875 150.238281 61.714844 C 152.28125 57.210938 153.921875 52.304688 155.351562 47.386719 C 155.765625 45.539062 157.199219 42.882812 156.785156 41.039062 C 156.785156 41.039062 156.171875 42.480469 155.765625 43.496094 C 156.378906 40.019531 156.785156 36.742188 156.585938 33.058594 C 156.785156 33.878906 157.199219 35.105469 156.992188 35.3125 C 157.40625 35.105469 157.199219 32.449219 157.199219 31.214844 C 157.199219 31.628906 156.992188 29.78125 157.199219 30.394531 C 156.378906 20.570312 147.375 8.90625 136.730469 11.976562 Z M 136.523438 36.949219 C 136.316406 37.769531 136.316406 37.5625 136.523438 37.15625 C 135.496094 51.277344 127.519531 65.199219 119.53125 76.457031 C 115.441406 82.390625 110.730469 87.921875 105.8125 93.242188 C 103.5625 95.492188 101.113281 97.746094 98.65625 99.789062 C 96.808594 101.636719 92.917969 103.679688 91.082031 105.929688 C 92.722656 104.292969 96.402344 102.246094 98.042969 101.023438 C 101.3125 98.148438 104.589844 94.882812 107.660156 91.8125 C 112.578125 86.488281 117.277344 80.960938 121.375 75.023438 C 108.886719 93.648438 91.695312 109.820312 71.019531 118.421875 C 72.65625 117.394531 76.753906 115.351562 76.753906 115.144531 C 76.339844 114.738281 68.152344 118.421875 67.335938 118.828125 C 69.992188 113.503906 72.65625 108.183594 75.519531 102.859375 C 76.339844 101.636719 82.886719 89.144531 82.886719 89.144531 C 82.480469 89.144531 82.078125 89.351562 81.871094 89.964844 C 90.875 75.429688 102.742188 60.894531 113.800781 47.59375 C 117.277344 43.496094 137.550781 17.09375 136.523438 36.742188 Z M 35.804688 142.78125 C 37.859375 133.972656 42.15625 128.039062 44.8125 120.0625 C 41.128906 131.929688 36.625 144.003906 33.152344 155.675781 C 33.96875 151.578125 34.789062 146.464844 35.804688 142.78125 Z M 31.71875 168.988281 C 31.511719 169.796875 30.078125 170.824219 29.871094 171.851562 C 30.484375 168.363281 31.097656 165.292969 31.917969 162.027344 C 31.511719 164.277344 32.125 166.726562 31.71875 168.988281 Z M 76.753906 70.316406 L 72.449219 80.960938 L 76.546875 70.523438 Z M 76.953125 69.496094 C 76.953125 69.910156 76.753906 69.910156 76.753906 70.105469 C 76.753906 69.910156 76.753906 69.910156 76.953125 69.496094 Z M 77.367188 68.675781 L 77.160156 68.882812 L 77.367188 68.46875 Z M 80.023438 92.828125 C 80.023438 92.628906 80.230469 92.628906 80.230469 92.421875 C 80.230469 92.628906 80.023438 92.828125 80.023438 92.828125 Z M 80.023438 92.828125 "/>
<path style=" stroke:none;fill-rule:nonzero;fill:rgb(13.328552%,13.328552%,13.328552%);fill-opacity:1;" d="M 227.824219 116.378906 C 227.210938 112.488281 217.789062 123.328125 217.386719 123.742188 C 211.441406 130.09375 205.714844 137.042969 198.753906 142.574219 C 195.476562 145.03125 194.042969 146.464844 194.25 141.558594 C 194.457031 137.25 196.097656 132.75 197.320312 128.859375 C 197.933594 126.816406 202.03125 119.035156 200.796875 117.601562 C 200.601562 117.394531 200.183594 118.007812 199.78125 118.421875 C 202.644531 112.683594 209.605469 102.859375 200.390625 100.203125 C 189.957031 97.339844 184.632812 108.597656 180.128906 115.351562 C 175.824219 121.492188 171.738281 127.425781 166.820312 132.957031 C 163.136719 137.25 157.402344 145.4375 151.464844 147.078125 C 145.9375 148.921875 149.628906 139.917969 150.4375 136.847656 C 151.0625 135.207031 158.425781 116.171875 158.832031 116.378906 C 158.425781 116.378906 158.023438 116.574219 157.609375 117.1875 C 159.859375 112.28125 162.316406 107.363281 164.972656 102.664062 C 164.363281 103.886719 163.75 105.929688 163.75 105.929688 C 164.777344 106.136719 169.683594 96.105469 169.277344 96.105469 C 168.863281 96.3125 168.460938 96.71875 168.042969 97.339844 C 169.683594 94.46875 171.738281 93.035156 168.042969 90.171875 C 164.363281 87.308594 157.816406 86.6875 154.132812 89.964844 C 149.628906 93.648438 146.757812 100.203125 144.503906 105.320312 C 143.074219 108.183594 140.613281 109.820312 139.183594 113.097656 C 136.320312 119.449219 134.679688 125.789062 133.039062 132.34375 C 131.402344 138.683594 130.386719 145.238281 131.402344 151.785156 C 132.023438 154.648438 133.039062 157.929688 135.292969 159.972656 C 135.914062 160.386719 141.847656 162.636719 141.433594 161.207031 C 141.027344 161.207031 140.613281 161.207031 140.417969 161 C 142.667969 161 144.917969 159.972656 146.964844 158.746094 C 147.171875 158.953125 145.324219 159.773438 145.324219 159.972656 C 147.378906 162.636719 162.929688 146.878906 164.363281 145.03125 C 169.476562 138.484375 174.601562 132.136719 179.921875 125.789062 C 177.257812 132.957031 172.753906 142.78125 177.058594 150.5625 C 179.507812 154.648438 184.21875 156.902344 188.722656 156.496094 C 198.347656 155.882812 206.9375 145.4375 212.882812 139.097656 C 216.765625 134.792969 220.652344 130.289062 223.527344 125.382812 C 224.753906 123.328125 228.03125 118.828125 227.824219 116.378906 Z M 196.710938 120.464844 C 196.292969 121.699219 196.097656 123.328125 195.476562 124.355469 C 195.476562 124.5625 195.277344 124.769531 195.070312 124.96875 C 195.277344 124.769531 195.277344 124.5625 195.277344 124.355469 C 193.636719 119.242188 199.78125 112.683594 201.824219 107.570312 C 200.183594 112.074219 198.140625 116.171875 196.710938 120.464844 Z M 147.992188 146.878906 C 146.757812 140.933594 151.0625 132.75 153.3125 127.21875 C 150.4375 135.207031 147.574219 145.03125 147.992188 146.878906 Z M 179.921875 126.816406 C 179.921875 125.996094 180.128906 125.382812 180.742188 124.96875 C 180.328125 125.582031 180.128906 126.203125 179.921875 126.816406 Z M 179.921875 126.816406 "/>
<path style=" stroke:none;fill-rule:nonzero;fill:rgb(13.328552%,13.328552%,13.328552%);fill-opacity:1;" d="M 297.625 117.601562 C 296.601562 112.683594 293.734375 115.964844 292.511719 117.808594 C 289.636719 121.285156 285.136719 124.5625 281.660156 127.839844 C 276.949219 131.929688 272.242188 136.226562 267.332031 140.113281 C 264.875 142.167969 261.804688 145.03125 258.734375 146.058594 C 258.316406 146.257812 256.886719 146.464844 256.886719 146.671875 L 256.6875 146.464844 C 256.6875 146.464844 256.480469 143.1875 256.6875 142.988281 C 256.886719 140.324219 257.707031 137.667969 258.523438 135.207031 C 258.734375 134.792969 260.984375 127.839844 260.570312 127.839844 L 259.550781 129.066406 C 260.777344 126.605469 262.414062 124.148438 263.847656 121.492188 C 260.570312 124.5625 258.316406 128.039062 256.6875 132.34375 C 255.867188 134.386719 253.617188 138.070312 253.203125 141.140625 C 253.617188 136.640625 256.6875 130.703125 258.121094 128.039062 C 260.164062 123.742188 262.414062 118.828125 265.082031 114.738281 C 269.988281 107.363281 280.632812 100.609375 277.355469 90.378906 C 274.492188 80.75 266.917969 80.554688 260.984375 86.074219 C 258.121094 88.738281 233.761719 119.851562 234.371094 120.257812 C 234.371094 120.257812 236.417969 117.808594 239.082031 114.324219 L 226.996094 131.929688 C 226.800781 131.929688 229.050781 128.453125 228.84375 128.246094 C 228.636719 128.039062 227.203125 129.472656 226.996094 130.289062 C 227.410156 125.996094 228.84375 121.699219 229.257812 117.394531 C 229.457031 115.753906 229.257812 114.53125 229.664062 112.890625 C 230.484375 110.234375 231.300781 107.363281 232.527344 105.109375 C 233.347656 103.472656 234.984375 102.039062 235.390625 100.402344 C 236.210938 97.746094 236.011719 96.71875 237.847656 94.46875 C 239.488281 92.421875 241.945312 90.378906 243.378906 88.53125 C 246.855469 83.417969 240.917969 79.933594 237.640625 79.320312 C 234.984375 78.914062 232.320312 78.707031 229.871094 80.140625 C 227.203125 81.777344 227.816406 83.210938 227.203125 85.460938 C 226.59375 88.324219 224.546875 91.601562 223.519531 94.269531 C 221.882812 98.566406 220.449219 102.859375 219.019531 107.164062 C 217.378906 111.460938 215.742188 115.558594 214.515625 119.851562 C 213.488281 123.328125 213.695312 126.605469 213.28125 129.886719 C 212.875 133.570312 212.265625 136.027344 214.101562 139.296875 C 216.15625 142.78125 221.675781 148.101562 225.367188 143.601562 L 226.1875 145.238281 C 229.664062 137.667969 234.984375 130.902344 239.28125 123.535156 C 241.125 120.257812 244.40625 118.007812 247.0625 114.53125 C 250.746094 109.613281 254.023438 104.707031 258.121094 99.996094 C 257.5 101.023438 254.84375 105.734375 255.050781 105.929688 C 255.453125 105.734375 255.660156 105.320312 256.066406 104.914062 L 253.203125 110.640625 C 252.996094 110.433594 254.023438 109 253.617188 109 C 252.175781 108.597656 247.878906 120.0625 247.476562 121.078125 C 246.035156 125.582031 245.835938 129.679688 245.421875 134.386719 C 245.226562 136.640625 244.808594 138.890625 244.808594 141.140625 C 244.808594 143.394531 245.015625 145.644531 246.035156 147.894531 C 246.65625 149.128906 247.476562 150.757812 248.492188 151.785156 C 248.699219 151.785156 250.953125 153.832031 249.925781 152.199219 L 251.160156 153.425781 L 250.546875 153.011719 C 250.339844 154.039062 257.914062 158.136719 259.136719 158.539062 C 264.875 160.386719 271.015625 153.832031 274.699219 149.941406 C 279.605469 144.617188 283.703125 138.484375 288.207031 132.75 C 290.664062 129.472656 298.445312 122.507812 297.625 117.601562 Z M 297.625 117.601562 "/>
<path style=" stroke:none;fill-rule:nonzero;fill:rgb(13.328552%,13.328552%,13.328552%);fill-opacity:1;" d="M 361.082031 115.753906 C 361.082031 115.964844 361.082031 115.964844 360.875 115.753906 L 360.875 115.558594 C 357.605469 110.027344 353.300781 117.601562 351.464844 120.257812 C 347.980469 124.96875 344.710938 129.472656 341.019531 133.777344 C 337.945312 137.457031 334.679688 141.140625 332.21875 145.03125 C 332.21875 145.4375 331.816406 146.464844 331.816406 146.464844 C 330.996094 147.6875 329.761719 148.714844 328.746094 149.941406 C 326.898438 151.785156 325.050781 153.832031 323.007812 155.675781 C 319.9375 158.539062 302.746094 174.714844 300.496094 164.277344 C 299.261719 159.152344 300.898438 152.8125 301.925781 147.894531 C 302.539062 145.238281 303.152344 142.78125 303.566406 140.113281 C 303.96875 138.070312 303.359375 136.027344 304.386719 133.972656 C 304.996094 132.75 305.195312 132.957031 306.636719 132.542969 L 310.113281 131.316406 C 312.363281 130.496094 314.613281 129.679688 316.660156 128.453125 C 319.730469 126.605469 322.601562 124.355469 325.257812 122.105469 C 331.609375 116.78125 338.363281 110.433594 341.019531 102.453125 C 342.460938 97.953125 342.65625 93.035156 339.792969 89.144531 C 337.136719 85.667969 332.625 83.824219 328.539062 83.003906 C 317.476562 80.960938 309.085938 87.308594 302.746094 95.699219 C 294.964844 105.320312 289.4375 117.1875 286.78125 129.273438 C 285.347656 135.207031 284.527344 141.140625 283.5 147.285156 C 282.472656 153.425781 281.863281 159.152344 285.140625 164.890625 C 284.933594 162.84375 284.527344 161 284.527344 159.152344 C 284.527344 158.136719 284.933594 157.109375 284.933594 156.289062 C 284.933594 155.882812 284.527344 154.648438 284.527344 154.039062 C 284.527344 152.199219 284.933594 150.757812 285.347656 148.921875 C 285.546875 147.078125 285.347656 145.238281 285.546875 143.394531 C 285.753906 141.347656 286.570312 139.710938 287.390625 137.863281 C 288.003906 136.226562 288.210938 134.792969 288.824219 133.164062 C 289.4375 131.722656 289.851562 130.09375 290.460938 128.453125 C 290.667969 127.425781 291.6875 126.203125 292.300781 124.96875 C 291.6875 126.816406 290.460938 128.453125 290.046875 130.09375 C 289.4375 132.542969 289.851562 135.207031 289.644531 137.667969 C 289.226562 140.324219 288.410156 142.988281 288.003906 145.851562 C 287.597656 148.507812 286.363281 150.964844 285.960938 153.632812 C 285.546875 156.082031 284.726562 157.929688 284.933594 160.386719 C 284.933594 161.820312 285.140625 163.25 285.347656 164.472656 C 285.546875 166.113281 286.570312 167.140625 287.597656 168.363281 C 291.074219 172.460938 295.785156 175.742188 301.105469 177.171875 C 304.789062 178.191406 308.066406 177.992188 311.542969 176.144531 C 316.460938 173.488281 320.757812 169.390625 324.4375 165.5 C 327.925781 161.609375 330.582031 157.316406 333.652344 153.21875 C 336.515625 149.535156 340 146.058594 342.863281 142.367188 L 353.921875 128.039062 L 360.261719 119.644531 C 361.289062 118.421875 361.902344 117.394531 361.082031 115.753906 Z M 310.320312 118.007812 C 310.515625 117.601562 310.515625 117.394531 310.515625 117.394531 C 313.585938 110.847656 315.839844 103.886719 320.144531 97.539062 L 323.828125 92.628906 C 324.648438 91.601562 326.078125 89.757812 327.511719 89.351562 C 330.582031 88.738281 331.402344 94.0625 331.191406 96.105469 L 330.375 100.402344 C 330.175781 101.636719 330.582031 102.453125 330.375 103.472656 C 329.96875 104.707031 328.941406 105.320312 328.328125 106.34375 L 324.855469 110.847656 C 320.144531 116.378906 314.210938 121.078125 307.652344 124.5625 C 308.679688 122.3125 309.292969 120.0625 310.320312 118.007812 Z M 310.320312 118.007812 "/>
<path style=" stroke:none;fill-rule:nonzero;fill:rgb(13.328552%,13.328552%,13.328552%);fill-opacity:1;" d="M 434.363281 94.269531 C 460.164062 83.003906 485.75 52.710938 482.066406 23.234375 C 481.039062 13.410156 473.878906 1.53125 462.417969 3.378906 C 456.273438 4.394531 450.339844 10.953125 446.035156 15.050781 C 440.507812 20.570312 435.183594 26.503906 430.277344 32.644531 C 420.035156 45.136719 410.628906 58.644531 402.027344 72.359375 C 398.136719 78.914062 394.453125 85.667969 390.96875 92.421875 C 388.921875 96.105469 387.085938 99.789062 385.449219 103.679688 C 384.015625 106.75 381.144531 110.847656 380.738281 114.324219 C 381.351562 110.640625 385.242188 104.707031 387.085938 101.023438 C 389.535156 95.898438 392.203125 90.785156 394.859375 85.667969 C 400.59375 75.636719 406.738281 65.8125 413.28125 56.390625 C 395.886719 81.984375 381.144531 110.234375 372.34375 140.113281 L 373.164062 132.34375 C 373.164062 131.722656 374.179688 121.898438 373.984375 122.105469 C 373.570312 122.507812 373.371094 122.925781 373.164062 123.328125 C 374.179688 116.78125 376.847656 109.417969 378.695312 102.859375 C 380.945312 94.675781 382.574219 86.488281 384.824219 78.304688 C 387.285156 69.703125 390.355469 61.515625 393.839844 53.320312 C 394.859375 51.484375 404.484375 30.601562 405.503906 29.988281 C 404.070312 30.601562 395.675781 48 393.632812 52.304688 C 398.550781 40.839844 404.277344 29.78125 411.644531 19.75 C 411.03125 20.777344 410.210938 22.207031 410.417969 22.207031 C 411.03125 22.414062 416.355469 15.453125 415.949219 15.246094 C 415.535156 15.246094 415.128906 15.453125 414.921875 15.660156 C 416.148438 14.230469 417.382812 13.816406 417.382812 11.355469 C 417.171875 8.085938 414.101562 3.585938 411.03125 2.351562 C 404.277344 -0.109375 399.773438 8.699219 396.09375 11.5625 C 390.15625 16.480469 387.492188 23.234375 383.808594 29.988281 C 382.988281 31.824219 373.164062 53.527344 373.777344 53.734375 L 372.34375 58.238281 C 372.136719 58.03125 372.957031 56.808594 372.550781 56.597656 C 370.5 56.195312 365.382812 74.414062 364.980469 75.84375 C 364.355469 79.933594 363.339844 83.625 362.105469 87.714844 C 361.492188 89.757812 360.671875 92.019531 360.269531 94.269531 C 360.0625 94.46875 359.449219 99.789062 360.269531 97.746094 C 360.269531 98.355469 360.0625 98.773438 360.0625 99.175781 C 359.855469 98.96875 359.855469 98.773438 359.855469 98.566406 C 359.242188 98.773438 358.628906 105.109375 358.421875 105.929688 C 357.199219 109.207031 355.964844 112.28125 355.144531 115.753906 C 353.101562 124.148438 352.695312 132.957031 352.28125 141.558594 C 352.074219 148.714844 350.445312 158.539062 353.515625 165.292969 C 356.171875 171.851562 364.5625 176.144531 370.300781 170.003906 L 370.914062 171.238281 C 372.34375 163.042969 373.984375 155.066406 376.441406 147.078125 C 381.351562 131.523438 388.105469 117.1875 394.453125 102.246094 C 396.496094 97.339844 400.386719 93.449219 403.25 88.738281 C 407.960938 80.75 412.671875 72.972656 417.785156 65.199219 C 426.59375 51.484375 436.625 37.769531 448.285156 26.304688 C 450.539062 24.054688 454.84375 18.730469 458.527344 19.75 C 464.054688 21.179688 461.390625 33.671875 458.734375 39.8125 L 458.527344 40.425781 L 458.320312 40.632812 L 458.320312 40.839844 C 456.679688 45.34375 454.429688 49.636719 452.175781 53.933594 C 452.175781 53.734375 453.816406 50.054688 453.816406 50.054688 C 452.789062 49.84375 446.242188 61.101562 445.214844 62.535156 C 441.128906 68.0625 436.824219 73.386719 431.914062 78.09375 C 427.414062 82.597656 422.496094 86.488281 417.382812 90.171875 C 414.308594 92.019531 410.003906 93.035156 407.347656 95.078125 C 401.414062 99.789062 416.355469 109.417969 421.675781 107.984375 C 426.179688 106.75 429.457031 104.09375 434.570312 104.707031 C 437.03125 105.109375 439.28125 105.929688 441.128906 107.777344 C 441.324219 107.777344 443.785156 110.640625 444.398438 111.667969 L 444.398438 111.054688 C 445.421875 113.308594 445.828125 115.558594 446.035156 117.808594 C 445.828125 116.78125 445.019531 115.351562 444.8125 113.917969 C 444.8125 116.171875 445.628906 120.0625 446.035156 120.257812 C 447.269531 121.492188 444.8125 129.679688 443.578125 132.34375 C 441.128906 137.667969 437.433594 142.574219 433.554688 147.078125 C 425.160156 156.496094 414.921875 164.070312 404.070312 170.617188 C 392.605469 177.578125 380.125 183.511719 367.023438 187.402344 C 361.492188 189.25 355.765625 190.066406 349.820312 191.085938 C 347.375 191.5 345.121094 191.292969 347.164062 193.75 C 349.210938 196.613281 358.015625 197.433594 361.285156 197.847656 C 367.425781 199.074219 373.570312 198.667969 379.917969 197.433594 C 390.15625 195.390625 400.800781 191.707031 410.210938 187.402344 C 432.734375 177.371094 455.039062 160.386719 462.820312 136.226562 C 465.074219 129.273438 466.503906 121.078125 465.074219 113.917969 C 462.003906 99.382812 448.078125 93.035156 434.363281 94.269531 Z M 443.378906 145.4375 C 441.949219 149.328125 438.460938 153.425781 435.390625 156.082031 C 432.527344 158.539062 429.457031 159.773438 427 161.609375 L 433.960938 154.246094 C 439.074219 148.3125 442.964844 142.78125 446.449219 135.613281 L 447.46875 133.164062 C 447.0625 136.640625 444.8125 142.167969 443.378906 145.4375 Z M 468.757812 58.238281 C 470.808594 54.753906 473.878906 50.25 475.925781 45.746094 C 473.878906 52.5 471.421875 58.03125 466.308594 63.769531 C 464.460938 65.605469 462.820312 67.648438 460.984375 69.703125 C 463.847656 66.019531 466.503906 62.328125 468.757812 58.238281 Z M 361.089844 121.699219 C 359.855469 124.5625 359.242188 129.066406 359.449219 132.136719 C 359.035156 127.632812 359.65625 121.492188 360.882812 117.1875 C 361.492188 115.351562 362.925781 113.097656 363.953125 111.054688 C 363.953125 112.074219 363.953125 113.308594 363.746094 114.53125 C 363.339844 117.1875 362.105469 119.449219 361.089844 121.699219 Z M 389.949219 61.308594 C 389.949219 60.894531 390.15625 60.488281 390.355469 60.074219 Z M 429.25 34.894531 L 427.816406 36.335938 Z M 393.21875 53.125 C 393.21875 52.917969 393.425781 52.5 393.632812 52.304688 Z M 393.21875 53.125 "/>
<path style=" stroke:none;fill-rule:nonzero;fill:rgb(13.328552%,13.328552%,13.328552%);fill-opacity:1;" d="M 582.164062 116.988281 C 581.964844 112.488281 578.273438 116.378906 577.046875 118.007812 C 574.382812 121.898438 571.933594 125.996094 569.472656 129.886719 C 563.945312 138.277344 558.414062 146.671875 552.074219 154.648438 C 530.984375 180.648438 545.726562 134.386719 544.085938 134.792969 C 543.269531 135 542.65625 138.070312 542.449219 138.683594 C 544.085938 131.316406 547.160156 122.507812 551.050781 115.351562 C 553.300781 110.847656 555.964844 107.164062 551.867188 102.246094 C 544.296875 93.035156 535.496094 101.429688 530.578125 107.777344 C 528.535156 99.996094 524.4375 88.53125 514.40625 88.53125 C 509.902344 88.53125 507.246094 90.785156 504.175781 93.449219 C 502.328125 94.675781 500.898438 94.882812 499.257812 96.3125 C 496.601562 98.148438 494.757812 101.023438 492.910156 103.472656 C 485.957031 113.710938 481.042969 126.605469 478.789062 138.484375 C 477.761719 144.210938 477.359375 150.5625 478.996094 156.289062 C 480.015625 159.566406 483.699219 166.933594 488.40625 166.320312 C 488.613281 166.320312 488.210938 166.113281 487.585938 165.707031 C 490.460938 166.527344 493.730469 166.113281 496.1875 164.472656 C 496.394531 164.890625 493.9375 165.917969 493.9375 165.917969 C 496.1875 169.390625 512.972656 149.128906 514.199219 147.285156 C 516.863281 143.601562 518.710938 139.710938 521.160156 135.820312 C 523.007812 132.957031 525.871094 129.273438 527.914062 126.203125 C 527.714844 127.632812 527.714844 129.472656 527.714844 129.472656 C 524.035156 141.140625 520.546875 153.832031 525.464844 165.917969 C 527.714844 172.046875 533.234375 177.785156 540.199219 176.558594 C 546.339844 175.535156 551.464844 169.597656 555.148438 164.890625 C 559.648438 159.566406 563.539062 153.632812 567.429688 147.492188 C 570.699219 141.960938 573.769531 136.433594 576.433594 130.289062 C 578.074219 126.398438 582.578125 121.699219 582.164062 116.988281 Z M 523.410156 118.421875 C 522.394531 119.851562 521.367188 121.285156 520.546875 122.71875 L 515.226562 130.289062 C 511.75 135.414062 508.066406 140.324219 504.175781 145.03125 C 503.148438 146.464844 498.230469 152.8125 496.1875 152.199219 C 493.117188 151.175781 496.394531 140.53125 496.800781 138.890625 C 497.414062 136.027344 508.265625 104.5 511.128906 103.886719 C 507.445312 103.679688 495.574219 140.738281 494.964844 143.808594 C 496.601562 133.777344 500.285156 123.949219 504.375 114.738281 C 506.625 110.027344 511.75 97.539062 518.503906 97.539062 C 522.1875 97.539062 523.007812 105.109375 523.617188 107.570312 C 523.410156 107.164062 521.574219 101.222656 521.367188 101.429688 C 520.339844 102.246094 524.4375 113.503906 524.4375 115.144531 C 524.4375 116.78125 524.4375 116.78125 523.410156 118.421875 Z M 528.121094 128.453125 C 528.121094 128.453125 528.734375 125.582031 528.941406 124.96875 L 529.96875 123.535156 Z M 525.050781 115.753906 L 525.050781 113.710938 C 525.664062 114.53125 525.664062 115.144531 525.050781 115.753906 Z M 525.050781 115.753906 "/>
<path style=" stroke:none;fill-rule:nonzero;fill:rgb(13.328552%,13.328552%,13.328552%);fill-opacity:1;" d="M 675.511719 116.78125 C 675.304688 113.097656 672.648438 114.117188 670.800781 115.753906 C 669.773438 116.78125 656.472656 131.523438 657.085938 132.542969 C 657.5 132.542969 658.113281 132.542969 658.519531 132.136719 C 654.628906 136.027344 648.484375 139.710938 643.785156 143.1875 C 639.074219 146.878906 633.753906 153.632812 627.195312 154.039062 C 626.585938 154.039062 625.972656 154.246094 625.152344 154.039062 C 622.289062 153.632812 615.328125 141.140625 614.714844 138.484375 C 614.914062 140.53125 619.625 149.742188 620.859375 151.785156 C 616.148438 146.464844 613.6875 138.484375 612.464844 131.316406 C 612.660156 131.929688 613.078125 132.542969 613.285156 132.542969 C 613.894531 132.34375 613.078125 128.246094 613.078125 128.039062 C 613.480469 127.632812 616.550781 126.816406 617.371094 126.398438 C 621.875 124.5625 626.179688 122.3125 630.476562 119.851562 C 638.464844 115.558594 646.441406 110.433594 652.988281 104.09375 C 660.15625 96.925781 666.296875 86.894531 656.878906 78.707031 C 647.46875 70.71875 634.15625 81.363281 627 87.714844 C 620.039062 93.855469 614.09375 101.023438 608.574219 108.390625 C 606.117188 112.074219 603.449219 115.558594 601.199219 119.242188 C 599.765625 121.285156 595.265625 126.398438 595.679688 128.859375 C 595.679688 128.859375 599.570312 124.148438 599.765625 123.949219 C 598.335938 125.996094 596.902344 128.246094 595.679688 130.496094 C 595.679688 130.289062 592.398438 134.792969 591.984375 135.613281 L 586.464844 145.238281 C 588.71875 135.613281 591.375 125.996094 594.246094 116.378906 C 595.679688 111.460938 596.902344 108.597656 600.179688 104.707031 C 603.042969 101.222656 605.90625 97.746094 608.574219 94.269531 C 614.714844 86.488281 620.234375 78.09375 625.765625 69.703125 C 629.863281 63.5625 632.933594 55.574219 637.644531 50.457031 C 643.371094 43.703125 648.289062 34.699219 651.152344 26.097656 C 652.789062 21.386719 652.179688 17.496094 649.917969 12.789062 C 645.621094 4.394531 637.023438 -3.179688 627.613281 1.125 C 619.832031 4.601562 614.300781 12.589844 610.214844 19.75 C 607.546875 24.25 605.089844 28.960938 603.042969 33.878906 L 598.945312 42.480469 C 598.335938 44.109375 597.722656 46.773438 597.109375 48.207031 C 597.109375 48.414062 596.902344 48.613281 596.902344 48.613281 C 595.265625 52.710938 594.039062 56.597656 592.609375 60.699219 C 592.398438 60.488281 593.625 56.597656 593.625 56.597656 C 592.609375 56.597656 589.328125 66.425781 588.925781 67.648438 C 587.078125 72.566406 585.4375 77.484375 583.800781 82.597656 C 580.730469 91.8125 578.269531 101.222656 576.433594 110.847656 C 574.792969 121.285156 571.722656 131.523438 569.472656 141.753906 C 568.652344 146.257812 567.222656 150.757812 567.222656 155.273438 C 567.222656 157.71875 567.625 160.386719 569.066406 162.429688 C 569.472656 162.84375 572.949219 165.707031 572.949219 165.5 C 572.949219 165.5 572.75 165.292969 572.75 165.097656 C 573.769531 165.917969 575.820312 166.527344 577.460938 166.726562 C 576.019531 166.726562 574.183594 166.527344 573.769531 165.917969 C 575.210938 167.960938 580.730469 166.527344 581.144531 166.527344 C 585.855469 165.5 586.871094 158.953125 589.328125 155.273438 L 599.152344 138.890625 C 599.972656 143.1875 601.613281 148.101562 603.65625 151.785156 C 604.070312 152.8125 610.007812 161 610.410156 160.59375 C 610.410156 160.386719 610.214844 159.972656 610.214844 159.773438 C 611.03125 160.792969 611.84375 161.609375 612.871094 162.222656 C 612.660156 162.429688 612.050781 161.609375 611.84375 162.027344 C 610.617188 163.863281 619.425781 166.933594 620.859375 166.933594 C 623.722656 166.726562 626.179688 164.683594 628.835938 163.65625 C 631.085938 162.636719 633.339844 161.820312 635.390625 160.179688 C 637.839844 158.136719 635.183594 159.359375 636.824219 158.136719 L 636.824219 158.539062 C 637.4375 157.71875 646.648438 152.605469 647.054688 152.199219 C 651.765625 148.714844 655.445312 144.003906 659.542969 139.710938 C 663.019531 136.226562 665.894531 132.34375 668.757812 128.652344 C 671.828125 125.175781 675.914062 122.3125 675.511719 116.988281 Z M 631.085938 16.886719 C 633.140625 14.023438 639.074219 6.855469 642.757812 11.769531 C 646.441406 16.679688 640.09375 28.347656 637.839844 33.058594 C 634.769531 40.019531 630.878906 46.773438 627 53.320312 L 621.46875 62.328125 C 619.425781 65.398438 616.761719 68.269531 615.535156 71.339844 C 616.355469 69.910156 617.984375 68.0625 619.011719 66.839844 L 623.515625 59.671875 C 627 54.140625 630.269531 48.613281 633.339844 42.882812 C 634.976562 40.21875 636.617188 37.15625 638.464844 33.878906 C 636.410156 38.175781 634.15625 42.273438 631.90625 46.359375 C 622.902344 62.742188 612.464844 78.09375 601.199219 92.828125 C 604.890625 79.527344 608.773438 66.21875 613.6875 53.125 C 618.398438 40.839844 623.109375 27.53125 631.085938 16.886719 Z M 610.617188 122.3125 C 617.371094 112.890625 624.332031 103.679688 632.320312 95.285156 C 634.15625 93.242188 644.398438 81.570312 647.875 84.03125 C 651.152344 86.488281 639.480469 99.789062 637.839844 101.636719 C 630.269531 109.820312 621.054688 118.214844 610.617188 122.3125 Z M 611.84375 48.820312 C 614.300781 42.882812 616.550781 36.742188 619.425781 30.601562 C 619.625 29.78125 621.675781 27.125 622.695312 25.277344 C 621.675781 27.945312 618.605469 32.449219 618.191406 33.671875 C 614.914062 42.066406 612.464844 50.664062 609.589844 59.253906 C 606.324219 69.496094 603.042969 79.320312 600.378906 89.558594 L 600.792969 87.921875 L 600.585938 88.128906 C 600.585938 87.921875 600.792969 87.921875 600.792969 87.714844 C 603.449219 74.816406 606.726562 61.101562 611.84375 48.820312 Z M 597.109375 48.207031 L 596.902344 48.414062 C 597.109375 48.414062 597.109375 48.207031 597.109375 48.207031 Z M 596.902344 48.613281 L 596.902344 48.414062 Z M 596.902344 48.613281 "/>
<path style=" stroke:none;fill-rule:nonzero;fill:rgb(13.328552%,13.328552%,13.328552%);fill-opacity:1;" d="M 738.96875 115.753906 C 738.96875 115.964844 738.96875 115.964844 738.761719 115.753906 L 738.761719 115.558594 C 735.492188 110.027344 731.1875 117.601562 729.351562 120.257812 C 725.863281 124.96875 722.597656 129.472656 718.902344 133.777344 C 715.832031 137.457031 712.5625 141.140625 710.105469 145.03125 C 710.105469 145.4375 709.699219 146.464844 709.699219 146.464844 C 708.882812 147.6875 707.648438 148.714844 706.628906 149.941406 C 704.785156 151.785156 702.9375 153.832031 700.894531 155.675781 C 697.824219 158.539062 680.632812 174.714844 678.378906 164.277344 C 677.144531 159.152344 678.785156 152.8125 679.8125 147.894531 C 680.425781 145.238281 681.035156 142.78125 681.449219 140.113281 C 681.855469 138.070312 681.242188 136.027344 682.269531 133.972656 C 682.882812 132.75 683.082031 132.957031 684.523438 132.542969 L 687.996094 131.316406 C 690.25 130.496094 692.5 129.679688 694.542969 128.453125 C 697.613281 126.605469 700.488281 124.355469 703.144531 122.105469 C 709.492188 116.78125 716.246094 110.433594 718.902344 102.453125 C 720.34375 97.953125 720.542969 93.035156 717.679688 89.144531 C 715.023438 85.667969 710.511719 83.824219 706.421875 83.003906 C 695.363281 80.960938 686.96875 87.308594 680.632812 95.699219 C 672.851562 105.320312 667.320312 117.1875 664.664062 129.273438 C 663.234375 135.207031 662.414062 141.140625 661.386719 147.285156 C 660.359375 153.425781 659.746094 159.152344 663.027344 164.890625 C 662.820312 162.84375 662.414062 161 662.414062 159.152344 C 662.414062 158.136719 662.820312 157.109375 662.820312 156.289062 C 662.820312 155.882812 662.414062 154.648438 662.414062 154.039062 C 662.414062 152.199219 662.820312 150.757812 663.234375 148.921875 C 663.429688 147.078125 663.234375 145.238281 663.429688 143.394531 C 663.636719 141.347656 664.457031 139.710938 665.277344 137.863281 C 665.890625 136.226562 666.097656 134.792969 666.707031 133.164062 C 667.320312 131.722656 667.734375 130.09375 668.347656 128.453125 C 668.554688 127.425781 669.574219 126.203125 670.183594 124.96875 C 669.574219 126.816406 668.347656 128.453125 667.933594 130.09375 C 667.320312 132.542969 667.734375 135.207031 667.527344 137.667969 C 667.113281 140.324219 666.292969 142.988281 665.890625 145.851562 C 665.484375 148.507812 664.25 150.964844 663.84375 153.632812 C 663.429688 156.082031 662.609375 157.929688 662.820312 160.386719 C 662.820312 161.820312 663.027344 163.25 663.234375 164.472656 C 663.429688 166.113281 664.457031 167.140625 665.484375 168.363281 C 668.960938 172.460938 673.671875 175.742188 678.992188 177.171875 C 682.675781 178.191406 685.953125 177.992188 689.429688 176.144531 C 694.347656 173.488281 698.640625 169.390625 702.324219 165.5 C 705.808594 161.609375 708.464844 157.316406 711.539062 153.21875 C 714.402344 149.535156 717.886719 146.058594 720.75 142.367188 L 731.808594 128.039062 L 738.148438 119.644531 C 739.175781 118.421875 739.789062 117.394531 738.96875 115.753906 Z M 688.203125 118.007812 C 688.402344 117.601562 688.402344 117.394531 688.402344 117.394531 C 691.472656 110.847656 693.722656 103.886719 698.03125 97.539062 L 701.710938 92.628906 C 702.53125 91.601562 703.964844 89.757812 705.394531 89.351562 C 708.464844 88.738281 709.285156 94.0625 709.078125 96.105469 L 708.257812 100.402344 C 708.0625 101.636719 708.464844 102.453125 708.257812 103.472656 C 707.855469 104.707031 706.828125 105.320312 706.214844 106.34375 L 702.738281 110.847656 C 698.03125 116.378906 692.09375 121.078125 685.539062 124.5625 C 686.566406 122.3125 687.179688 120.0625 688.203125 118.007812 Z M 688.203125 118.007812 "/>
<path style=" stroke:none;fill-rule:nonzero;fill:rgb(13.328552%,13.328552%,13.328552%);fill-opacity:1;" d="M 808.160156 116.574219 C 806.925781 111.253906 802.019531 118.421875 800.992188 119.644531 L 789.734375 134.792969 L 778.683594 149.328125 L 772.742188 156.902344 C 772.128906 157.71875 767.625 163.457031 768.039062 163.457031 C 768.445312 163.042969 769.058594 163.042969 769.671875 162.429688 C 766.597656 165.707031 755.34375 175.9375 753.300781 173.488281 C 751.660156 171.4375 756.164062 162.84375 756.773438 160.792969 C 759.027344 154.855469 761.078125 148.714844 763.527344 142.988281 C 766.195312 137.042969 769.265625 131.109375 771.722656 125.175781 C 774.171875 118.828125 770.488281 116.574219 764.554688 115.144531 C 761.898438 114.53125 758.621094 114.53125 755.550781 114.117188 C 755.550781 114.324219 755.757812 114.324219 755.757812 114.324219 C 758.414062 114.738281 762.304688 114.9375 765.582031 115.964844 C 760.664062 114.53125 754.523438 115.144531 750.632812 114.117188 C 747.976562 113.503906 746.335938 113.503906 746.742188 110.433594 C 747.15625 106.34375 751.453125 102.039062 752.882812 98.148438 C 752.882812 98.355469 751.453125 102.039062 751.660156 102.039062 C 752.6875 102.453125 754.324219 96.71875 754.324219 95.898438 C 754.117188 94.882812 751.660156 91.8125 751.453125 93.035156 L 751.867188 93.648438 C 742.042969 86.894531 730.371094 100.816406 732.414062 110.847656 C 732.828125 112.28125 733.648438 113.097656 734.261719 114.738281 C 734.667969 115.964844 734.261719 117.394531 735.484375 119.035156 C 739.792969 124.355469 747.5625 124.5625 753.703125 123.328125 C 752.6875 124.769531 741.835938 147.6875 742.445312 147.894531 L 741.015625 153.011719 C 740.808594 152.8125 741.628906 151.175781 741.222656 151.175781 C 739.792969 150.964844 736.917969 162.84375 736.71875 163.863281 C 735.902344 168.78125 736.097656 173.074219 738.152344 177.578125 C 739.375 180.441406 740.808594 182.898438 743.472656 184.539062 C 745.933594 186.179688 748.992188 186.996094 751.867188 186.386719 C 752.882812 185.96875 756.773438 183.3125 755.757812 183.511719 L 757.1875 182.898438 C 756.980469 183.105469 756.773438 183.3125 756.773438 183.511719 C 757.386719 183.71875 766.808594 176.144531 768.039062 175.328125 C 774.585938 169.796875 779.910156 163.042969 784.816406 156.289062 C 789.734375 149.328125 794.847656 142.367188 799.558594 135.414062 C 801.808594 132.136719 803.863281 128.859375 805.492188 125.382812 C 806.726562 122.925781 808.773438 119.449219 808.160156 116.574219 Z M 746.949219 141.140625 C 748.382812 137.457031 750.019531 133.972656 751.867188 130.496094 C 752.273438 129.886719 755.136719 122.507812 756.578125 122.105469 C 755.550781 122.71875 751.253906 132.75 750.226562 134.59375 L 746.335938 143.601562 C 744.292969 148.507812 742.042969 153.632812 740.609375 158.953125 C 742.042969 152.8125 744.492188 146.878906 746.949219 141.140625 Z M 742.042969 180.441406 C 743.265625 182.082031 744.90625 183.71875 747.15625 184.539062 C 745.3125 183.925781 743.671875 182.898438 742.445312 181.675781 C 742.65625 181.675781 742.65625 181.882812 742.65625 182.082031 C 741.421875 180.441406 739.792969 176.964844 739.582031 176.351562 C 738.972656 173.894531 738.765625 171.03125 738.972656 168.574219 C 738.972656 166.527344 739.167969 164.890625 739.582031 163.042969 L 739.582031 163.25 C 739.167969 165.917969 738.972656 168.574219 739.167969 171.4375 L 739.167969 172.460938 C 738.972656 172.253906 738.972656 172.046875 738.972656 172.046875 C 738.972656 172.046875 738.972656 172.253906 739.167969 172.671875 L 739.167969 172.867188 L 739.988281 177.171875 L 739.375 174.507812 C 739.792969 175.742188 740.808594 177.992188 741.835938 180.242188 L 741.628906 180.035156 C 741.628906 180.242188 741.835938 180.441406 742.042969 180.648438 Z M 747.769531 112.890625 C 748.796875 113.710938 750.632812 113.917969 752.480469 114.117188 C 750.839844 113.917969 749.410156 113.503906 748.382812 112.683594 C 748.382812 112.683594 747.15625 111.667969 746.949219 111.253906 C 746.949219 111.667969 747.363281 112.683594 747.769531 112.890625 Z M 769.265625 128.859375 L 764.96875 137.863281 L 769.265625 128.652344 Z M 739.792969 162.429688 C 739.792969 162.636719 739.582031 162.84375 739.582031 163.042969 L 739.582031 162.84375 C 739.582031 162.636719 739.792969 162.636719 739.792969 162.429688 Z M 769.472656 128.246094 L 769.472656 128.453125 L 769.265625 128.453125 Z M 769.472656 128.246094 L 769.472656 128.453125 L 769.265625 128.453125 Z M 739.988281 159.773438 C 739.988281 159.566406 740.195312 159.359375 740.195312 158.953125 C 740.195312 159.359375 739.988281 159.566406 739.988281 159.773438 Z M 740.808594 178.605469 C 740.808594 178.605469 741.015625 178.8125 741.015625 179.007812 C 741.015625 178.8125 740.808594 178.8125 740.808594 178.605469 Z M 747.15625 110.847656 C 746.949219 110.847656 746.949219 111.054688 746.949219 111.054688 Z M 747.15625 110.847656 "/>
<path style=" stroke:none;fill-rule:nonzero;fill:rgb(13.328552%,13.328552%,13.328552%);fill-opacity:1;" d="M 874.480469 118.214844 C 873.867188 115.351562 872.226562 114.9375 870.183594 115.753906 C 866.292969 117.601562 862.402344 121.699219 858.71875 124.148438 C 850.328125 129.472656 841.933594 133.777344 832.929688 138.277344 C 832.929688 138.070312 832.722656 137.667969 832.515625 137.042969 C 832.722656 138.070312 832.515625 138.484375 832.316406 138.683594 C 830.261719 129.886719 828.21875 121.078125 826.578125 112.074219 C 827.398438 115.964844 829.246094 122.507812 830.675781 128.039062 C 828.832031 119.449219 826.578125 108.792969 826.785156 108.792969 C 826.371094 109 826.371094 109.417969 826.371094 109.820312 C 825.96875 107.363281 825.355469 104.292969 825.761719 101.636719 C 825.96875 98.566406 827.605469 95.898438 828.632812 93.035156 C 828.425781 94.46875 828.011719 96.3125 828.011719 96.3125 C 829.246094 96.519531 830.066406 88.945312 830.066406 88.128906 C 829.859375 86.894531 827.191406 83.003906 827.191406 84.03125 C 821.671875 78.914062 810.820312 90.171875 809.179688 95.078125 C 807.957031 98.355469 807.957031 101.84375 808.15625 105.320312 C 808.363281 108.792969 809.390625 111.863281 810.40625 115.144531 C 811.027344 117.601562 810.207031 119.242188 810.40625 121.898438 C 810.820312 125.996094 812.253906 130.09375 813.070312 133.972656 C 813.890625 137.042969 816.546875 143.1875 815.933594 146.058594 C 815.53125 148.921875 809.390625 151.382812 806.722656 153.011719 C 803.246094 155.273438 799.761719 157.929688 796.285156 160.59375 C 790.144531 165.292969 783.597656 171.238281 781.140625 178.8125 C 780.722656 179.828125 779.292969 184.332031 780.722656 185.152344 C 780.929688 185.359375 781.542969 181.882812 781.75 181.46875 C 779.09375 194.976562 792.394531 201.53125 804.886719 201.738281 C 819.007812 202.144531 828.832031 193.957031 833.75 181.261719 C 835.792969 175.742188 836.40625 170.003906 836.207031 164.277344 C 836.207031 160.386719 835.792969 156.703125 835.179688 153.011719 C 834.765625 149.742188 834.359375 149.941406 836.613281 148.101562 C 838.25 146.878906 840.710938 146.058594 842.347656 145.238281 C 848.894531 141.753906 854.828125 137.667969 860.765625 133.359375 C 865.070312 130.289062 875.296875 124.96875 874.480469 118.421875 Z M 791.785156 188.636719 C 786.460938 186.996094 791.785156 178.605469 793.621094 175.9375 C 796.691406 171.851562 801.203125 168.78125 805.292969 165.917969 L 811.433594 161.820312 C 812.046875 161.402344 815.933594 158.332031 814.710938 158.746094 L 817.167969 157.316406 L 815.726562 158.539062 C 816.144531 158.332031 816.753906 158.136719 817.167969 157.71875 C 817.367188 162.636719 817.367188 167.546875 815.933594 172.460938 C 815.726562 173.28125 811.847656 181.46875 810.207031 183.105469 L 811.226562 182.289062 C 809.390625 184.539062 807.335938 186.386719 804.886719 187.816406 C 804.886719 187.609375 806.722656 186.386719 806.523438 186.179688 L 800.789062 188.429688 C 797.925781 189.042969 794.648438 189.652344 791.785156 188.636719 Z M 817.574219 194.570312 C 812.253906 196.820312 807.136719 197.847656 801.609375 198.046875 C 811.640625 197.433594 822.078125 192.527344 828.011719 184.132812 C 825.761719 188.636719 822.898438 192.113281 817.574219 194.570312 Z M 832.515625 136.433594 C 832.316406 135 831.902344 132.957031 831.289062 130.703125 C 831.695312 132.957031 832.109375 135.207031 832.515625 136.433594 Z M 835.179688 157.71875 C 834.972656 157.523438 834.972656 157.109375 834.972656 156.703125 C 834.972656 157.109375 835.179688 157.523438 835.179688 157.71875 Z M 835.179688 157.71875 "/>
</g>
</svg>
